<svg width="20" height="20" viewBox="0 0 20 20" fill="none" xmlns="http://www.w3.org/2000/svg">
<circle cx="10" cy="10" r="10" fill="#454545"/>
<g clip-path="url(#clip0_1858_1060)">
<path d="M14.6619 6.97037L11.6319 10.0006L14.6619 13.0307C15.1126 13.4816 15.1126 14.2119 14.6619 14.6628C14.4367 14.888 14.1415 15.0007 13.8464 15.0007C13.5508 15.0007 13.2555 14.8881 13.0305 14.6628L9.99992 11.6323L6.96954 14.6628C6.74438 14.8879 6.44912 15.0006 6.15377 15.0006C5.8585 15.0006 5.56344 14.8881 5.33808 14.6628C4.88739 14.2121 4.88739 13.4817 5.33808 13.0307L8.36794 10.0006L5.33791 6.97037C4.88722 6.51968 4.88722 5.78918 5.33791 5.33849C5.78851 4.88815 6.51859 4.88815 6.96937 5.33849L9.99989 8.36874L13.0302 5.33849C13.481 4.88815 14.2112 4.88815 14.6617 5.33849C15.1126 5.78918 15.1126 6.51968 14.6619 6.97037Z" fill="white"/>
</g>
<defs>
<clipPath id="clip0_1858_1060">
<rect width="10" height="10" fill="white" transform="translate(5 5)"/>
</clipPath>
</defs>
</svg>
