<svg width="35" height="35" viewBox="0 0 35 35" fill="none" xmlns="http://www.w3.org/2000/svg">
<ellipse cx="17.4999" cy="17.5" rx="17.5" ry="17.4999" transform="rotate(-90 17.4999 17.5)" fill="#4E9AEA"/>
<path d="M17.6125 8.39998C17.0981 8.39998 16.7123 8.65632 16.4551 8.91265C16.4551 8.91265 16.3265 9.04082 16.3265 9.16899L10.2823 15.0648C9.6393 15.7056 9.6393 16.6028 10.2823 17.2436C10.9253 17.7563 11.9541 17.7563 12.4685 17.1155L16.0693 13.5267L16.0693 25.0619C16.0693 25.9591 16.7123 26.6 17.6125 26.6C18.5127 26.6 19.1557 25.9591 19.1557 25.0619L19.1557 13.6549L22.6279 17.1155C23.2709 17.7563 24.1711 17.7563 24.8141 17.1155C25.3285 16.6028 25.3285 15.5774 24.8141 15.0648L19.0271 9.29716C18.7699 8.78449 18.2555 8.39998 17.6125 8.39998Z" fill="white"/>
</svg>
