<svg width="44" height="44" viewBox="0 0 44 44" fill="none" xmlns="http://www.w3.org/2000/svg">
<ellipse cx="21.9742" cy="21.6034" rx="21.9742" ry="21.6034" fill="#0057B1"/>
<path d="M29.1816 21.6681C29.1816 21.3224 29.0058 21.0632 28.83 20.8904C28.83 20.8904 28.7421 20.8039 28.6542 20.8039L24.6109 16.7425C24.1714 16.3104 23.5562 16.3104 23.1167 16.7425C22.7651 17.1746 22.7651 17.8659 23.2046 18.2115L25.6657 20.6311H17.755C17.1397 20.6311 16.7002 21.0632 16.7002 21.6681C16.7002 22.273 17.1397 22.705 17.755 22.705H25.5778L23.2046 25.0382C22.7651 25.4703 22.7651 26.0752 23.2046 26.5072C23.5562 26.8529 24.2593 26.8529 24.6109 26.5072L28.5663 22.6186C28.9179 22.4458 29.1816 22.1001 29.1816 21.6681Z" fill="white"/>
</svg>
