<svg width="51" height="50" viewBox="0 0 51 50" fill="none" xmlns="http://www.w3.org/2000/svg">
<ellipse opacity="0.5" cx="25.4292" cy="25" rx="25.4292" ry="25" transform="rotate(-180 25.4292 25)" fill="#0057B1"/>
<path d="M19.1228 24.925C19.1228 25.325 19.3262 25.625 19.5296 25.825C19.5296 25.825 19.6313 25.925 19.7331 25.925L24.412 30.625C24.9206 31.125 25.6326 31.125 26.1412 30.625C26.5481 30.125 26.5481 29.325 26.0395 28.925L23.1914 26.125L32.3459 26.125C33.0579 26.125 33.5665 25.625 33.5665 24.925C33.5665 24.225 33.0579 23.725 32.3459 23.725L23.2931 23.725L26.0395 21.025C26.5481 20.525 26.5481 19.825 26.0395 19.325C25.6326 18.925 24.8189 18.925 24.412 19.325L19.8348 23.825C19.4279 24.025 19.1228 24.425 19.1228 24.925Z" fill="white"/>
</svg>
