<svg width="99" height="35" viewBox="0 0 99 35" fill="none" xmlns="http://www.w3.org/2000/svg">
<path d="M48.971 31.2845C49.3489 31.2845 49.6511 31.4331 49.8779 31.8047L50.4824 31.2102C50.1802 30.8386 49.7267 30.4671 48.971 30.4671C47.7618 30.4671 46.9305 31.4331 46.9305 32.6964C46.9305 33.9597 47.7618 34.9257 48.971 34.9257C49.7267 34.9257 50.2557 34.5541 50.4824 34.1826L49.8779 33.5881C49.6511 33.8854 49.3489 34.1083 48.971 34.1083C48.2153 34.1083 47.7618 33.5138 47.7618 32.6964C47.7618 31.879 48.2153 31.2845 48.971 31.2845ZM50.9359 31.3588H52.0695V34.7771H52.9008V31.3588H54.0344V30.5414H50.8603V31.3588H50.9359ZM56.4527 30.4671C55.1679 30.4671 54.4122 31.5074 54.4122 32.6964C54.4122 33.8854 55.1679 34.9257 56.4527 34.9257C57.7374 34.9257 58.4931 33.8854 58.4931 32.6964C58.5687 31.5074 57.7374 30.4671 56.4527 30.4671ZM56.4527 34.1083C55.6969 34.1083 55.3191 33.4395 55.3191 32.6964C55.3191 31.9533 55.6969 31.2845 56.4527 31.2845C57.2084 31.2845 57.5863 31.9533 57.5863 32.6964C57.6618 33.4395 57.2084 34.1083 56.4527 34.1083ZM61.5916 33.2909L60.458 30.5414H59.3244V34.7771H60.1557V31.8047L61.3649 34.7771H61.7427L62.9519 31.8047V34.7771H63.7832V30.5414H62.7252L61.5916 33.2909ZM66.5038 30.4671C65.8992 30.4671 65.2947 30.69 64.8412 31.1359L65.2191 31.8047C65.5969 31.4331 65.9748 31.2845 66.4282 31.2845C66.9573 31.2845 67.3351 31.5817 67.3351 32.1019V32.6964C67.0328 32.3248 66.5794 32.1762 66.0504 32.1762C65.3702 32.1762 64.6901 32.5478 64.6901 33.5881C64.6901 34.5541 65.4458 35 66.0504 35C66.5794 35 67.0328 34.7771 67.3351 34.4055V34.8514H68.1664V32.0276C68.1664 30.8386 67.4107 30.4671 66.5038 30.4671ZM67.3351 33.8853C67.1084 34.1826 66.7305 34.3312 66.3527 34.3312C65.8992 34.3312 65.5214 34.034 65.5214 33.5881C65.5214 33.1423 65.8992 32.845 66.3527 32.845C66.7305 32.845 67.1084 32.9936 67.3351 33.2909V33.8853ZM68.771 31.3588H69.9046V34.7771H70.7359V31.3588H71.8695V30.5414H68.771V31.3588ZM74.3634 30.4671C73.0786 30.4671 72.3229 31.5074 72.3229 32.6964C72.3229 33.8854 73.0786 34.9257 74.3634 34.9257C75.6481 34.9257 76.4038 33.8854 76.4038 32.6964C76.4038 31.5074 75.6481 30.4671 74.3634 30.4671ZM74.3634 34.1083C73.6076 34.1083 73.2298 33.4395 73.2298 32.6964C73.2298 31.9533 73.6076 31.2845 74.3634 31.2845C75.1191 31.2845 75.4969 31.9533 75.4969 32.6964C75.4969 33.4395 75.1191 34.1083 74.3634 34.1083ZM77.3863 32.6221C77.2351 33.7367 77.084 34.1826 76.7061 34.1826V34.9257C77.613 34.9257 78.0664 34.2569 78.2176 32.7707L78.3687 31.4331H79.8046V34.8514H80.6359V30.6157H77.5374L77.3863 32.6221ZM83.5832 30.4671C82.2985 30.4671 81.5427 31.5074 81.5427 32.6964C81.5427 33.8854 82.2985 34.9257 83.5832 34.9257C84.8679 34.9257 85.6237 33.8854 85.6237 32.6964C85.6992 31.5074 84.8679 30.4671 83.5832 30.4671ZM83.5832 34.1083C82.8275 34.1083 82.4496 33.4395 82.4496 32.6964C82.4496 31.9533 82.8275 31.2845 83.5832 31.2845C84.3389 31.2845 84.7168 31.9533 84.7168 32.6964C84.7924 33.4395 84.3389 34.1083 83.5832 34.1083ZM86.455 34.8514H87.2863V31.4331H89.4779V30.6157H86.455V34.8514ZM90.9893 33.4395V30.6157H90.158V34.8514H90.9893L92.8786 31.9533V34.8514H93.7099V30.6157H92.8786L90.9893 33.4395ZM94.6168 31.9533C94.6168 32.6964 94.9947 33.1423 95.5237 33.2909L94.5412 34.8514H95.5237L96.4305 33.2909H97.3374V34.8514H98.1687V30.6157H95.9015C95.0702 30.5414 94.6168 31.2102 94.6168 31.9533ZM97.3374 31.3588V32.4735H96.0527C95.6748 32.4735 95.5237 32.2505 95.5237 31.9533C95.5237 31.6561 95.7504 31.4331 96.0527 31.4331H97.3374V31.3588ZM38.0886 6.98514H36.5015C35.5947 6.98514 34.8389 7.72824 34.8389 8.61996V9.21444C33.5542 7.80255 31.7405 6.83652 29.5489 6.83652C25.1656 6.83652 21.4626 10.4777 21.4626 15.4565C21.4626 20.2866 25.0145 24.0764 29.5489 24.0764C32.1939 24.0764 34.3099 23.0361 35.6702 21.4013C35.6702 23.7049 34.6878 26.9745 29.9267 26.9745C27.5084 26.9745 25.7702 26.1571 24.4855 25.0425L22.445 28.8323C24.8634 30.3185 27.8107 31.2102 31.2115 31.2102C35.9725 31.1359 39.8267 27.3461 39.8267 22.7389V8.61996C39.8267 7.72824 39.071 6.98514 38.0886 6.98514ZM30.6824 19.9894C28.0374 19.9894 26.3748 17.9087 26.3748 15.0849C26.3748 12.4841 28.642 10.8493 30.6824 10.8493C32.7229 10.8493 34.9901 12.4841 34.9901 15.3822C34.9901 18.4289 32.7985 19.9894 30.6824 19.9894ZM96.8084 7.20807H95.2214C94.2389 7.20807 93.4832 7.95117 93.4832 8.84289V24.448H98.5466V8.9172C98.471 7.95117 97.7153 7.20807 96.8084 7.20807ZM74.6656 14.1189V24.5223H79.6534V14.5648C79.6534 12.7813 81.0137 11.2951 82.6763 11.2951C84.1122 11.2951 85.3969 12.5584 85.3969 14.1189V24.5223H90.3847V13.3758C90.3847 9.80892 87.2863 6.98514 83.7344 6.98514C81.6183 6.98514 79.6534 8.02548 78.4443 9.58599C77.3107 8.02548 75.6481 6.98514 73.6832 6.98514C71.945 6.98514 70.2824 7.72824 69.3756 8.99151V8.84289C69.3756 7.95117 68.6199 7.20807 67.713 7.20807H66.126C65.2191 7.20807 64.4634 7.95117 64.4634 8.84289V24.5223H67.7886C68.6954 24.5223 69.4511 23.7792 69.4511 22.8875V14.6391C69.4511 12.8556 70.6603 11.2951 72.3229 11.2951C73.5321 11.2951 74.6656 12.5584 74.6656 14.1189ZM95.9771 5.79618C97.6397 5.79618 99 4.53291 99 2.89809C99 1.33758 97.6397 0 95.9771 0C94.3145 0 92.9542 1.26327 92.9542 2.89809C92.9542 4.4586 94.3145 5.79618 95.9771 5.79618ZM56.3015 22.7389C56.3015 23.6306 57.0573 24.3737 57.9641 24.3737H61.2137V8.69427C61.2137 7.80255 60.458 7.05945 59.5511 7.05945H58.0397C57.1328 7.05945 56.3771 7.80255 56.3771 8.69427C54.8657 7.431 53.0519 6.6879 51.087 6.6879C46.4771 6.6879 42.6985 10.7006 42.6985 15.6794C42.6985 20.6582 46.326 24.6709 51.087 24.6709C53.0519 24.7452 54.8657 24.0021 56.3015 22.7389ZM47.6863 15.5308C47.6863 12.7813 49.6511 10.6263 51.9939 10.6263C54.3366 10.6263 56.4527 12.5584 56.4527 15.5308C56.4527 18.5775 54.3366 20.4352 51.9939 20.4352C49.6511 20.4352 47.6863 18.2059 47.6863 15.5308ZM16.7771 6.98514H15.2656C14.3588 6.98514 13.6031 7.72824 13.6031 8.61996C12.1672 7.431 10.3534 6.6879 8.38855 6.6879C3.77863 6.6879 0 10.7006 0 15.6794C0 20.6582 3.62748 24.6709 8.38855 24.6709C10.3534 24.6709 12.1672 23.9278 13.6031 22.7389C13.6031 23.6306 14.3588 24.3737 15.2656 24.3737H18.5153V8.69427C18.5153 7.72824 17.7595 6.98514 16.7771 6.98514ZM9.29542 20.4352C6.8771 20.4352 4.98779 18.2059 4.98779 15.5308C4.98779 12.7813 6.95267 10.6263 9.29542 10.6263C11.7137 10.6263 13.7542 12.5584 13.7542 15.5308C13.7542 18.5775 11.6382 20.4352 9.29542 20.4352Z" fill="white"/>
</svg>
