<svg width="30" height="30" viewBox="0 0 30 30" fill="none" xmlns="http://www.w3.org/2000/svg">
<path d="M27.2294 26.4333C28.509 25.121 28.509 23.3713 27.2294 22.0927L23.7273 18.5932C23.1212 17.9539 22.3804 17.6174 21.5722 17.6174C20.7977 17.6174 20.0569 17.9539 19.4171 18.5932L17.3967 20.6121C17.2283 20.5112 17.06 20.4439 16.8916 20.343C16.6559 20.242 16.4538 20.1074 16.2518 20.0065C14.3661 18.8288 12.6487 17.2473 11.0324 15.2621C10.2242 14.2526 9.68543 13.4114 9.31502 12.5366C9.82012 12.0655 10.3252 11.5608 10.7967 11.0897C10.965 10.9214 11.1671 10.7196 11.3354 10.5513C11.9752 9.912 12.3456 9.13809 12.3456 8.36418C12.3456 7.59027 12.0089 6.85001 11.3354 6.17704L9.61808 4.42733C9.41604 4.22545 9.214 4.02356 9.04563 3.82167C8.67522 3.41789 8.27114 3.01411 7.86705 2.64398C7.26093 2.03831 6.52011 1.70183 5.74561 1.70183C4.97112 1.70183 4.2303 2.03831 3.5905 2.64398L1.40171 4.83111C0.593547 5.63867 0.122116 6.61447 0.0210953 7.75851C-0.113599 9.60916 0.425179 11.3252 0.829262 12.4693C1.83947 15.2284 3.38846 17.8193 5.67827 20.5785C8.47318 23.9097 11.8069 26.5006 15.612 28.3512C17.06 29.0578 19.013 29.8654 21.2018 30C21.3365 30 21.4712 30 21.6059 30C23.0539 30 24.2998 29.4616 25.2426 28.4185L25.2763 28.3849C25.6131 27.9811 25.9835 27.611 26.3876 27.2408C26.6906 27.0053 26.96 26.7361 27.2294 26.4333ZM25.2426 26.0632C24.8386 26.4669 24.4008 26.8707 24.0304 27.3418C23.3906 28.0484 22.6161 28.3512 21.6396 28.3512C21.5385 28.3512 21.4375 28.3512 21.3365 28.3512C19.4508 28.183 17.6998 27.4764 16.3528 26.8371C12.7497 25.0874 9.61808 22.631 6.99154 19.5017C4.83642 16.9108 3.38846 14.4882 2.41192 11.8972C1.8058 10.3158 1.60376 9.07079 1.70478 7.92675C1.77212 7.18649 2.07519 6.58082 2.58029 6.04245L4.7354 3.88896C5.03847 3.58613 5.3752 3.41789 5.71194 3.41789C6.11602 3.41789 6.45276 3.65342 6.68847 3.88896C7.09256 4.25909 7.4293 4.62922 7.83338 5.033C8.03542 5.23489 8.23746 5.43678 8.4395 5.63867L10.1569 7.35473C10.4936 7.69121 10.662 8.0277 10.662 8.36418C10.662 8.70066 10.4936 9.03714 10.1569 9.37363C9.98849 9.54187 9.78645 9.74376 9.61808 9.912C9.0793 10.4504 8.5742 10.9551 8.03542 11.4598L8.00175 11.4935C7.46297 12.0318 7.56399 12.5702 7.66501 12.9067C7.66501 12.9403 7.66501 12.9403 7.69868 12.974C8.13644 14.0507 8.77624 15.0938 9.75278 16.3052C11.5038 18.4587 13.3559 20.1411 15.3763 21.4197C15.6457 21.5879 15.9151 21.7225 16.1508 21.8571C16.3865 21.9581 16.5885 22.0927 16.7906 22.1936C16.8242 22.1936 16.8242 22.2273 16.8579 22.2273C17.06 22.3282 17.262 22.3955 17.464 22.3955C17.9691 22.3955 18.3059 22.059 18.4069 21.9581L20.5957 19.7709C20.7977 19.569 21.1681 19.2999 21.5722 19.2999C21.9763 19.2999 22.2794 19.569 22.5151 19.7709L26.0171 23.2704C26.8253 24.0779 26.4549 24.8182 25.9835 25.2892C25.7814 25.5584 25.512 25.794 25.2426 26.0632ZM15.5446 6.10975C15.612 5.63867 16.0497 5.33584 16.5212 5.43678C18.5416 5.77326 20.36 6.71541 21.8079 8.19594C23.2559 9.67646 24.1988 11.4935 24.5692 13.4787C24.6365 13.9498 24.3335 14.3872 23.8957 14.4545C23.862 14.4545 23.7947 14.4545 23.761 14.4545C23.3569 14.4545 22.9865 14.1517 22.9192 13.7479C22.6498 12.0991 21.8416 10.5513 20.6294 9.37363C19.4171 8.16229 17.9018 7.38838 16.2518 7.08555C15.7467 7.01825 15.4436 6.58082 15.5446 6.10975ZM28.3406 13.5124C27.8355 10.5513 26.4212 7.85946 24.2998 5.70597C22.1447 3.55248 19.4508 2.1729 16.4875 1.66818C16.0161 1.60088 15.713 1.16345 15.814 0.692379C15.9151 0.221304 16.3191 -0.0815304 16.7906 0.0194143C20.0569 0.557786 23.0875 2.10561 25.4784 4.49463C27.8692 6.88366 29.4519 9.912 29.9906 13.2095C30.058 13.6806 29.7549 14.118 29.3172 14.1853C29.2835 14.1853 29.2161 14.1853 29.1825 14.1853C28.7784 14.219 28.408 13.9161 28.3406 13.5124Z" fill="white"/>
</svg>
