<svg width="15" height="12" viewBox="0 0 15 12" fill="none" xmlns="http://www.w3.org/2000/svg">
<path d="M7.50016 0.658203C3.35803 0.658203 0 4.0481 0 8.22979C0 10.4972 0.978521 11.976 0.978521 11.976L14.0187 11.9766C14.0187 11.9766 15 10.3605 15 8.22964C15 4.0481 11.642 0.658203 7.50016 0.658203ZM13.4686 11.0542L1.55548 11.049C1.55548 11.049 0.920683 9.84686 0.920683 8.2059C0.920683 4.54081 3.87762 1.56945 7.5253 1.56945C11.1728 1.56945 14.1299 4.54065 14.1299 8.2059C14.1301 9.86541 13.4686 11.0542 13.4686 11.0542Z" fill="#E84282"/>
<path d="M9.61934 2.6684L9.5252 2.66824L7.52462 6.58841L5.45206 2.63477L2.61441 9.77714H1.88107V10.3508H5.89857V9.77714H5.10142L5.89857 7.54492L7.52462 10.3508L9.08701 7.54492L9.88401 9.77714H9.08701V10.3508H13.0725V9.77714H12.382L9.61934 2.6684Z" fill="#E84282"/>
</svg>
