<svg width="112" height="40" viewBox="0 0 112 40" fill="none" xmlns="http://www.w3.org/2000/svg">
<path d="M55.4015 35.7537C55.829 35.7537 56.171 35.9236 56.4275 36.3482L57.1115 35.6688C56.7695 35.2442 56.2565 34.8195 55.4015 34.8195C54.0336 34.8195 53.0931 35.9236 53.0931 37.3673C53.0931 38.811 54.0336 39.9151 55.4015 39.9151C56.2565 39.9151 56.855 39.4904 57.1115 39.0658L56.4275 38.3864C56.171 38.7261 55.829 38.9809 55.4015 38.9809C54.5466 38.9809 54.0336 38.3015 54.0336 37.3673C54.0336 36.4331 54.5466 35.7537 55.4015 35.7537ZM57.6244 35.8386H58.9069V39.7452H59.8473V35.8386H61.1298V34.9045H57.5389V35.8386H57.6244ZM63.8656 34.8195C62.4122 34.8195 61.5573 36.0085 61.5573 37.3673C61.5573 38.7261 62.4122 39.9151 63.8656 39.9151C65.3191 39.9151 66.174 38.7261 66.174 37.3673C66.2595 36.0085 65.3191 34.8195 63.8656 34.8195ZM63.8656 38.9809C63.0107 38.9809 62.5832 38.2166 62.5832 37.3673C62.5832 36.518 63.0107 35.7537 63.8656 35.7537C64.7206 35.7537 65.1481 36.518 65.1481 37.3673C65.2336 38.2166 64.7206 38.9809 63.8656 38.9809ZM69.6794 38.0467L68.3969 34.9045H67.1145V39.7452H68.055V36.3482L69.4229 39.7452H69.8504L71.2183 36.3482V39.7452H72.1588V34.9045H70.9618L69.6794 38.0467ZM75.2366 34.8195C74.5527 34.8195 73.8687 35.0743 73.3557 35.5839L73.7832 36.3482C74.2107 35.9236 74.6382 35.7537 75.1511 35.7537C75.7496 35.7537 76.1771 36.0934 76.1771 36.6879V37.3673C75.8351 36.9427 75.3221 36.7728 74.7237 36.7728C73.9542 36.7728 73.1847 37.1975 73.1847 38.3864C73.1847 39.4904 74.0397 40 74.7237 40C75.3221 40 75.8351 39.7452 76.1771 39.3206V39.8302H77.1176V36.603C77.1176 35.2442 76.2626 34.8195 75.2366 34.8195ZM76.1771 38.7261C75.9206 39.0658 75.4931 39.2357 75.0657 39.2357C74.5527 39.2357 74.1252 38.896 74.1252 38.3864C74.1252 37.8769 74.5527 37.5372 75.0657 37.5372C75.4931 37.5372 75.9206 37.707 76.1771 38.0467V38.7261ZM77.8015 35.8386H79.084V39.7452H80.0244V35.8386H81.3069V34.9045H77.8015V35.8386ZM84.1282 34.8195C82.6748 34.8195 81.8198 36.0085 81.8198 37.3673C81.8198 38.7261 82.6748 39.9151 84.1282 39.9151C85.5817 39.9151 86.4366 38.7261 86.4366 37.3673C86.4366 36.0085 85.5817 34.8195 84.1282 34.8195ZM84.1282 38.9809C83.2733 38.9809 82.8458 38.2166 82.8458 37.3673C82.8458 36.518 83.2733 35.7537 84.1282 35.7537C84.9832 35.7537 85.4107 36.518 85.4107 37.3673C85.4107 38.2166 84.9832 38.9809 84.1282 38.9809ZM87.5481 37.2824C87.3771 38.5563 87.2061 39.0658 86.7786 39.0658V39.9151C87.8046 39.9151 88.3176 39.1507 88.4885 37.4522L88.6595 35.9236H90.284V39.8302H91.2244V34.9894H87.7191L87.5481 37.2824ZM94.5588 34.8195C93.1053 34.8195 92.2504 36.0085 92.2504 37.3673C92.2504 38.7261 93.1053 39.9151 94.5588 39.9151C96.0122 39.9151 96.8672 38.7261 96.8672 37.3673C96.9527 36.0085 96.0122 34.8195 94.5588 34.8195ZM94.5588 38.9809C93.7038 38.9809 93.2763 38.2166 93.2763 37.3673C93.2763 36.518 93.7038 35.7537 94.5588 35.7537C95.4137 35.7537 95.8412 36.518 95.8412 37.3673C95.9267 38.2166 95.4137 38.9809 94.5588 38.9809ZM97.8076 39.8302H98.7481V35.9236H101.227V34.9894H97.8076V39.8302ZM102.937 38.2166V34.9894H101.997V39.8302H102.937L105.075 36.518V39.8302H106.015V34.9894H105.075L102.937 38.2166ZM107.041 36.518C107.041 37.3673 107.469 37.8769 108.067 38.0467L106.956 39.8302H108.067L109.093 38.0467H110.119V39.8302H111.06V34.9894H108.495C107.554 34.9045 107.041 35.6688 107.041 36.518ZM110.119 35.8386V37.1125H108.666C108.238 37.1125 108.067 36.8577 108.067 36.518C108.067 36.1783 108.324 35.9236 108.666 35.9236H110.119V35.8386ZM43.0901 7.98302H41.2947C40.2687 7.98302 39.4137 8.83227 39.4137 9.85138V10.5308C37.9603 8.9172 35.9084 7.81316 33.429 7.81316C28.4702 7.81316 24.2809 11.9745 24.2809 17.6645C24.2809 23.1847 28.2992 27.5159 33.429 27.5159C36.4214 27.5159 38.8153 26.327 40.3542 24.4586C40.3542 27.0913 39.2427 30.828 33.8565 30.828C31.1206 30.828 29.1542 29.8938 27.7008 28.62L25.3924 32.9512C28.1282 34.6497 31.4626 35.6688 35.3099 35.6688C40.6962 35.5839 45.0565 31.2527 45.0565 25.9873V9.85138C45.0565 8.83227 44.2015 7.98302 43.0901 7.98302ZM34.7114 22.845C31.7191 22.845 29.8382 20.4671 29.8382 17.2399C29.8382 14.2675 32.403 12.3992 34.7114 12.3992C37.0198 12.3992 39.5847 14.2675 39.5847 17.5796C39.5847 21.0616 37.1053 22.845 34.7114 22.845ZM109.521 8.23779H107.725C106.614 8.23779 105.759 9.08705 105.759 10.1062V27.9406H111.487V10.1911C111.402 9.08705 110.547 8.23779 109.521 8.23779ZM84.4702 16.1359V28.0255H90.113V16.6454C90.113 14.6072 91.6519 12.9087 93.5328 12.9087C95.1572 12.9087 96.6107 14.3524 96.6107 16.1359V28.0255H102.253V15.2866C102.253 11.2102 98.7481 7.98302 94.7298 7.98302C92.3359 7.98302 90.113 9.17197 88.745 10.9554C87.4626 9.17197 85.5817 7.98302 83.3588 7.98302C81.3924 7.98302 79.5115 8.83227 78.4855 10.276V10.1062C78.4855 9.08705 77.6305 8.23779 76.6046 8.23779H74.8092C73.7832 8.23779 72.9282 9.08705 72.9282 10.1062V28.0255H76.6901C77.716 28.0255 78.571 27.1762 78.571 26.1571V16.7304C78.571 14.6921 79.9389 12.9087 81.8198 12.9087C83.1878 12.9087 84.4702 14.3524 84.4702 16.1359ZM108.58 6.6242C110.461 6.6242 112 5.18047 112 3.3121C112 1.52866 110.461 0 108.58 0C106.699 0 105.16 1.44374 105.16 3.3121C105.16 5.09554 106.699 6.6242 108.58 6.6242ZM63.6947 25.9873C63.6947 27.0064 64.5496 27.8556 65.5756 27.8556H69.2519V9.93631C69.2519 8.9172 68.3969 8.06794 67.371 8.06794H65.6611C64.6351 8.06794 63.7802 8.9172 63.7802 9.93631C62.0702 8.49257 60.0183 7.64331 57.7954 7.64331C52.5802 7.64331 48.3053 12.2293 48.3053 17.9193C48.3053 23.6093 52.4092 28.1953 57.7954 28.1953C60.0183 28.2803 62.0702 27.431 63.6947 25.9873ZM53.9481 17.7495C53.9481 14.6072 56.171 12.1444 58.8214 12.1444C61.4718 12.1444 63.8656 14.3524 63.8656 17.7495C63.8656 21.2314 61.4718 23.3546 58.8214 23.3546C56.171 23.3546 53.9481 20.8068 53.9481 17.7495ZM18.9802 7.98302H17.2702C16.2443 7.98302 15.3893 8.83227 15.3893 9.85138C13.7649 8.49257 11.713 7.64331 9.49008 7.64331C4.27481 7.64331 0 12.2293 0 17.9193C0 23.6093 4.10382 28.1953 9.49008 28.1953C11.713 28.1953 13.7649 27.3461 15.3893 25.9873C15.3893 27.0064 16.2443 27.8556 17.2702 27.8556H20.9466V9.93631C20.9466 8.83227 20.0916 7.98302 18.9802 7.98302ZM10.516 23.3546C7.78015 23.3546 5.64275 20.8068 5.64275 17.7495C5.64275 14.6072 7.86565 12.1444 10.516 12.1444C13.2519 12.1444 15.5603 14.3524 15.5603 17.7495C15.5603 21.2314 13.1664 23.3546 10.516 23.3546Z" fill="white"/>
</svg>
