<svg width="15" height="12" viewBox="0 0 15 12" fill="none" xmlns="http://www.w3.org/2000/svg">
<path d="M7.50016 0C3.35803 0 0 3.3899 0 7.57159C0 9.83901 0.978521 11.3178 0.978521 11.3178L14.0187 11.3184C14.0187 11.3184 15 9.70228 15 7.57143C15 3.3899 11.642 0 7.50016 0ZM13.4686 10.396L1.55548 10.3908C1.55548 10.3908 0.920683 9.18866 0.920683 7.5477C0.920683 3.88261 3.87762 0.911244 7.5253 0.911244C11.1728 0.911244 14.1299 3.88245 14.1299 7.5477C14.1301 9.20721 13.4686 10.396 13.4686 10.396Z" fill="#BFD12F"/>
<path d="M9.61934 2.0102L9.5252 2.01004L7.52462 5.93021L5.45206 1.97656L2.61441 9.11893H1.88107V9.69259H5.89857V9.11893H5.10142L5.89857 6.88672L7.52462 9.69259L9.08701 6.88672L9.88401 9.11893H9.08701V9.69259H13.0725V9.11893H12.382L9.61934 2.0102Z" fill="#BFD12F"/>
</svg>
