<svg width="26" height="27" viewBox="0 0 26 27" fill="none" xmlns="http://www.w3.org/2000/svg">
<path d="M12.9999 26.4997C20.1795 26.4997 25.9997 20.6795 25.9997 13.4999C25.9997 6.32023 20.1795 0.5 12.9999 0.5C5.82023 0.5 0 6.32023 0 13.4999C0 20.6795 5.82023 26.4997 12.9999 26.4997Z" fill="#41B4E6"/>
<path d="M25.9999 13.5004C25.9999 13.1837 25.9879 12.8698 25.9657 12.5586L20.5778 7.1709L5.42188 13.1326L11.2206 18.9314L11.2967 19.2052L11.3952 19.1059L11.3956 19.1063L11.2967 19.2052L17.7112 25.6197C22.5619 23.7327 25.9999 19.0183 25.9999 13.5004Z" fill="#0091C8"/>
<path d="M11.7374 15.3944L17.6123 19.83L20.5779 7.1709L5.42188 13.1326L10.0337 14.6601L18.4503 9.01446L11.7374 15.3944Z" fill="white"/>
<path d="M10.0338 14.6603L11.2969 19.2054L11.7376 15.3946L18.4505 9.01465L10.0338 14.6603Z" fill="#D2D2D7"/>
<path d="M13.6469 16.8361L11.2969 19.2054L11.7375 15.3945L13.6469 16.8361Z" fill="#B9B9BE"/>
</svg>
