<svg width="12" height="6" viewBox="0 0 12 6" fill="none" xmlns="http://www.w3.org/2000/svg">
<path d="M11.8625 2.58829C11.8624 2.58814 11.8623 2.58798 11.8621 2.58784L9.41278 0.137232C9.22928 -0.046351 8.9325 -0.0456678 8.74985 0.138835C8.56722 0.323313 8.56793 0.621698 8.75142 0.805305L10.3959 2.4506H0.46875C0.209859 2.4506 0 2.66159 0 2.92188C0 3.18216 0.209859 3.39315 0.46875 3.39315H10.3959L8.75144 5.03844C8.56795 5.22205 8.56725 5.52044 8.74987 5.70492C8.93252 5.88944 9.22933 5.89008 9.4128 5.70652L11.8621 3.25591C11.8623 3.25577 11.8624 3.25561 11.8625 3.25546C12.0461 3.07124 12.0455 2.77189 11.8625 2.58829Z" fill="#0057B1"/>
</svg>
