<svg width="30" height="30" viewBox="0 0 30 30" fill="none" xmlns="http://www.w3.org/2000/svg">
<path d="M12.9168 2.28891V7.29496C12.9168 7.97389 12.3664 8.52399 11.6875 8.52399C9.26518 8.52399 7.94754 11.0085 7.76491 15.912H11.6875C12.3664 15.912 12.9168 16.4626 12.9168 17.1413V27.7113C12.9168 28.3899 12.3664 28.9401 11.6875 28.9401H1.22904C0.549848 28.9401 0 28.3894 0 27.7113V17.1413C0 14.7906 0.236681 12.6335 0.703252 10.7291C1.18177 8.77649 1.91631 7.06919 2.8858 5.65452C3.8834 4.20066 5.13126 3.0598 6.595 2.26502C8.06863 1.46543 9.78228 1.05988 11.6879 1.05988C12.3664 1.05988 12.9168 1.60998 12.9168 2.28891ZM28.7706 8.52408C29.4492 8.52408 30 7.97346 30 7.29504V2.289C30 1.61007 29.4493 1.05996 28.7706 1.05996C26.8657 1.05996 25.1518 1.4656 23.6787 2.26511C22.2147 3.05989 20.9662 4.20075 19.9684 5.65461C18.9992 7.06928 18.2647 8.77666 17.7861 10.7297C17.3198 12.6347 17.0831 14.7918 17.0831 17.1414V27.7114C17.0831 28.39 17.6337 28.9401 18.3124 28.9401H28.7705C29.4491 28.9401 29.9994 28.3895 29.9994 27.7114V17.1413C29.9994 16.4627 29.4492 15.912 28.7705 15.912H24.9039C25.0838 11.0085 26.3822 8.52408 28.7706 8.52408Z" fill="white"/>
</svg>
