<svg width="124" height="32" viewBox="0 0 124 32" fill="none" xmlns="http://www.w3.org/2000/svg">
<g clip-path="url(#clip0_1141_1304)">
<path d="M1.3712 2.22151H26.9248C27.5199 2.22151 28.0023 2.70174 28.0023 3.29413V8.29617C28.0023 8.96246 27.7119 9.59331 27.2062 10.0299L12.9165 21.9294H26.9248C27.5199 21.9294 28.0023 22.4008 28.0023 22.9932V28.7357C28.0023 29.3281 27.5199 29.8083 26.9248 29.8083H1.3712C0.77608 29.8083 0.29364 29.3281 0.29364 28.7357V23.7419C0.29364 23.0756 0.584096 22.4447 1.08975 22.0082L15.3795 10.1087H1.3712C0.77608 10.1087 0.29364 9.61751 0.29364 9.02512V3.29413C0.29364 2.70174 0.77608 2.22151 1.3712 2.22151ZM45.8151 1.24316C48.7698 1.24316 51.404 1.90455 53.6031 3.11319C55.8022 4.32184 57.5662 6.07773 58.7804 8.26675C59.9946 10.4558 60.659 13.0779 60.659 16.019C60.659 18.9601 59.9946 21.5823 58.7804 23.7713C57.5662 25.9603 55.8022 27.7162 53.6031 28.9248C51.404 30.1335 48.7698 30.7949 45.8151 30.7949C42.8604 30.7949 40.2262 30.1335 38.0271 28.9248C35.828 27.7162 34.064 25.9603 32.8498 23.7713C31.6356 21.5823 30.9711 18.9601 30.9711 16.019C30.9711 13.0779 31.6356 10.4558 32.8498 8.26675C34.064 6.07773 35.828 4.32184 38.0271 3.11319C40.2262 1.90455 42.8604 1.24316 45.8151 1.24316ZM45.8151 9.12362C44.4017 9.12362 43.1609 9.42081 42.1346 9.97339C41.1084 10.526 40.2967 11.3339 39.7416 12.3555C39.1865 13.377 38.8879 14.6121 38.8879 16.019C38.8879 17.4259 39.1865 18.661 39.7416 19.6826C40.2967 20.7041 41.1084 21.5121 42.1346 22.0647C43.1609 22.6172 44.4017 22.9144 45.8151 22.9144C47.2285 22.9144 48.4693 22.6172 49.4955 22.0647C50.5218 21.5121 51.3335 20.7041 51.8886 19.6826C52.4437 18.661 52.7423 17.4259 52.7423 16.019C52.7423 14.6121 52.4437 13.377 51.8886 12.3555C51.3335 11.3339 50.5218 10.526 49.4955 9.97339C48.4693 9.42081 47.2285 9.12362 45.8151 9.12362ZM77.4822 1.24316C80.4368 1.24316 83.0711 1.90455 85.2702 3.11319C87.4693 4.32184 89.2333 6.07773 90.4475 8.26675C91.6617 10.4558 92.3261 13.0779 92.3261 16.019C92.3261 18.9601 91.6617 21.5823 90.4475 23.7713C89.2333 25.9603 87.4693 27.7162 85.2702 28.9248C83.0711 30.1335 80.4368 30.7949 77.4822 30.7949C74.5275 30.7949 71.8933 30.1335 69.6942 28.9248C67.4951 27.7162 65.7311 25.9603 64.5169 23.7713C63.3027 21.5823 62.6382 18.9601 62.6382 16.019C62.6382 13.0779 63.3027 10.4558 64.5169 8.26675C65.7311 6.07773 67.4951 4.32184 69.6942 3.11319C71.8933 1.90455 74.5275 1.24316 77.4822 1.24316ZM77.4822 9.12362C76.0688 9.12362 74.828 9.42081 73.8017 9.97339C72.7755 10.526 71.9638 11.3339 71.4087 12.3555C70.8536 13.377 70.555 14.6121 70.555 16.019C70.555 17.4259 70.8536 18.661 71.4087 19.6826C71.9638 20.7041 72.7755 21.5121 73.8017 22.0647C74.828 22.6172 76.0688 22.9144 77.4822 22.9144C78.8956 22.9144 80.1364 22.6172 81.1626 22.0647C82.1889 21.5121 83.0005 20.7041 83.5557 19.6826C84.1108 18.661 84.4093 17.4259 84.4093 16.019C84.4093 14.6121 84.1108 13.377 83.5557 12.3555C83.0005 11.3339 82.1889 10.526 81.1626 9.97339C80.1364 9.42081 78.8956 9.12362 77.4822 9.12362ZM123.007 3.29754V28.7353C123.007 29.3277 122.525 29.808 121.929 29.808H116.908C116.238 29.808 115.605 29.5189 115.166 29.0156L103.212 14.7931V28.7353C103.212 29.3277 102.718 29.808 102.123 29.808H96.3692C95.774 29.808 95.2915 29.3277 95.2915 28.7353V3.29754C95.2915 2.70512 95.774 2.22487 96.3692 2.22487H101.391C102.06 2.22487 102.694 2.51407 103.133 3.01751L115.087 17.2449V3.29754C115.087 2.70512 115.56 2.22487 116.156 2.22487H121.929C122.525 2.22487 123.007 2.70512 123.007 3.29754Z" fill="url(#paint0_linear_1141_1304)"/>
</g>
<defs>
<linearGradient id="paint0_linear_1141_1304" x1="95.204" y1="16.019" x2="27.059" y2="16.019" gradientUnits="userSpaceOnUse">
<stop stop-color="#6339F5"/>
<stop offset="1" stop-color="#3D3F55"/>
</linearGradient>
<clipPath id="clip0_1141_1304">
<rect width="122.71" height="31.5218" fill="white" transform="translate(0.29364 0.257812)"/>
</clipPath>
</defs>
</svg>
