<svg width="110" height="33" viewBox="0 0 110 33" fill="none" xmlns="http://www.w3.org/2000/svg">
<g clip-path="url(#clip0_1141_1301)">
<path d="M104.113 28.5601C106.255 28.5601 107.772 28.1597 108.903 27.2973V23.3858C107.743 24.2174 106.344 24.741 104.38 24.741C101.078 24.741 99.7088 22.0922 99.7088 17.9034C99.7088 13.4991 101.375 11.2507 104.41 11.2507C106.195 11.2507 107.951 11.8975 108.873 12.5135V8.44795C107.891 7.89356 106.195 7.49316 103.874 7.49316C97.9533 7.49316 94.8885 11.8975 94.8885 18.0574C94.9183 24.8026 97.9235 28.5601 104.113 28.5601ZM75.161 26.7737V22.8622C73.7327 23.8786 71.2928 24.7718 69.0612 24.7718C65.6691 24.7718 64.3897 23.1086 64.1814 19.7206H75.3693V17.195C75.3693 10.1419 72.364 7.49316 67.752 7.49316C62.0985 7.49316 59.4206 11.9591 59.4206 18.0882C59.4206 25.1414 62.7829 28.5601 68.6744 28.5601C71.6201 28.5601 73.7922 27.7285 75.161 26.7737ZM32.7007 7.86276V15.8707H26.5116V7.86276H21.8699V28.1597H26.5116V19.6898H32.7007V28.1597H37.3424V7.86276H32.7007ZM58.2602 24.3406H56.2071V7.86276H42.6983V9.58754C42.6983 14.5463 42.4008 20.9526 40.7643 24.3406H39.2765V32.7797H43.5612V28.1597H53.9457V32.7797H58.2304V24.3406H58.2602ZM89.9492 28.1597H95.2158L87.7771 17.2258L94.3232 7.86276H89.6516L83.1055 17.2258V7.86276H78.4638V28.1597H83.1055V18.1806L89.9492 28.1597ZM67.633 11.2507C69.9241 11.2507 70.6382 13.2219 70.6382 15.7783V16.1787H64.1814C64.3004 12.9447 65.4311 11.2507 67.633 11.2507ZM51.5653 24.3406H45.0192C46.2987 21.2914 46.6557 15.7475 46.6557 12.2363V11.6203H51.5653V24.3406Z" fill="black"/>
<path d="M18.0017 28.1595H13.2707V3.92019H11.1581C7.28996 3.92019 5.26663 5.92217 5.26663 8.90973C5.26663 12.2977 6.66511 13.8685 9.55134 15.8704L11.9317 17.5336L5.0881 28.1595H0L6.15927 18.6732C2.61844 16.0552 0.624854 13.4989 0.624854 9.18693C0.624854 3.79699 4.25496 0.131836 11.1284 0.131836H17.972L18.0017 28.1595Z" fill="#FC3F1D"/>
</g>
<defs>
<clipPath id="clip0_1141_1301">
<rect width="109.201" height="32.6476" fill="white" transform="translate(0 0.131836)"/>
</clipPath>
</defs>
</svg>
