<svg width="11" height="9" viewBox="0 0 11 9" fill="none" xmlns="http://www.w3.org/2000/svg">
<path d="M11 4.56576C11 4.26514 10.8451 4.03967 10.6901 3.88935C10.6901 3.88935 10.6127 3.8142 10.5352 3.8142L6.97183 0.281837C6.58451 -0.0939457 6.04225 -0.0939457 5.65493 0.281837C5.34507 0.65762 5.34507 1.25887 5.73239 1.5595L7.90141 3.66388H0.929578C0.387324 3.66388 0 4.03967 0 4.56576C0 5.09186 0.387324 5.46764 0.929578 5.46764H7.82394L5.73239 7.49687C5.34507 7.87265 5.34507 8.39875 5.73239 8.77453C6.04225 9.07516 6.66197 9.07516 6.97183 8.77453L10.4577 5.39248C10.7676 5.24217 11 4.94154 11 4.56576Z" fill="white"/>
</svg>
