<svg width="25" height="25" viewBox="0 0 25 25" fill="none" xmlns="http://www.w3.org/2000/svg">
<ellipse cx="12.5" cy="12.5" rx="12.5" ry="12.5" transform="rotate(90 12.5 12.5)" fill="#0057B1"/>
<path d="M12.4196 19C12.7871 19 13.0626 18.8169 13.2463 18.6338C13.2463 18.6338 13.3382 18.5423 13.3382 18.4507L17.6555 14.2394C18.1148 13.7817 18.1148 13.1408 17.6555 12.6831C17.1962 12.3169 16.4614 12.3169 16.0939 12.7746L13.5219 15.338L13.5219 7.09859C13.5219 6.45775 13.0626 6 12.4196 6C11.7766 6 11.3173 6.45775 11.3173 7.09859L11.3173 15.2465L8.83716 12.7746C8.37787 12.3169 7.73486 12.3169 7.27557 12.7746C6.90814 13.1408 6.90814 13.8732 7.27557 14.2394L11.4092 18.3592C11.5929 18.7254 11.9603 19 12.4196 19Z" fill="white"/>
</svg>
