<svg width="40" height="40" viewBox="0 0 40 40" fill="none" xmlns="http://www.w3.org/2000/svg">
<path d="M17.8052 10H22.2452L21.4952 24.04H18.5252L17.8052 10ZM20.0252 31.21C19.3252 31.21 18.7452 30.99 18.2852 30.55C17.8252 30.09 17.5952 29.53 17.5952 28.87C17.5952 28.21 17.8252 27.66 18.2852 27.22C18.7452 26.78 19.3252 26.56 20.0252 26.56C20.7052 26.56 21.2652 26.78 21.7052 27.22C22.1652 27.66 22.3952 28.21 22.3952 28.87C22.3952 29.53 22.1652 30.09 21.7052 30.55C21.2652 30.99 20.7052 31.21 20.0252 31.21Z" fill="#454545"/>
<circle cx="20" cy="20" r="19" stroke="#454545" stroke-width="2"/>
</svg>
