<svg width="50" height="50" viewBox="0 0 50 50" fill="none" xmlns="http://www.w3.org/2000/svg">
<path d="M22.8052 13H27.2452L26.4952 27.04H23.5252L22.8052 13ZM25.0252 34.21C24.3252 34.21 23.7452 33.99 23.2852 33.55C22.8252 33.09 22.5952 32.53 22.5952 31.87C22.5952 31.21 22.8252 30.66 23.2852 30.22C23.7452 29.78 24.3252 29.56 25.0252 29.56C25.7052 29.56 26.2652 29.78 26.7052 30.22C27.1652 30.66 27.3952 31.21 27.3952 31.87C27.3952 32.53 27.1652 33.09 26.7052 33.55C26.2652 33.99 25.7052 34.21 25.0252 34.21Z" fill="white"/>
<circle cx="25" cy="25" r="24" stroke="white" stroke-width="2"/>
</svg>
