<svg width="51" height="50" viewBox="0 0 51 50" fill="none" xmlns="http://www.w3.org/2000/svg">
<path d="M50 25C50 38.2363 39.0497 49 25.5 49C11.9503 49 1 38.2363 1 25C1 11.7637 11.9503 1 25.5 1C39.0497 1 50 11.7637 50 25Z" fill="white" stroke="#0057B1" stroke-width="2"/>
<path d="M20.6856 18V32H19.2456V19.28H15.9456V18H20.6856ZM29.6122 32.12C28.5322 32.12 27.5655 31.8333 26.7122 31.26C25.8722 30.6867 25.2122 29.8667 24.7322 28.8C24.2655 27.72 24.0322 26.4533 24.0322 25C24.0322 23.5467 24.2655 22.2867 24.7322 21.22C25.2122 20.14 25.8722 19.3133 26.7122 18.74C27.5655 18.1667 28.5322 17.88 29.6122 17.88C30.6922 17.88 31.6522 18.1667 32.4922 18.74C33.3455 19.3133 34.0122 20.14 34.4922 21.22C34.9722 22.2867 35.2122 23.5467 35.2122 25C35.2122 26.4533 34.9722 27.72 34.4922 28.8C34.0122 29.8667 33.3455 30.6867 32.4922 31.26C31.6522 31.8333 30.6922 32.12 29.6122 32.12ZM29.6122 30.8C30.4255 30.8 31.1389 30.5733 31.7522 30.12C32.3789 29.6667 32.8655 29.0067 33.2122 28.14C33.5589 27.2733 33.7322 26.2267 33.7322 25C33.7322 23.7733 33.5589 22.7267 33.2122 21.86C32.8655 20.9933 32.3789 20.3333 31.7522 19.88C31.1389 19.4267 30.4255 19.2 29.6122 19.2C28.7989 19.2 28.0789 19.4267 27.4522 19.88C26.8389 20.3333 26.3589 20.9933 26.0122 21.86C25.6655 22.7267 25.4922 23.7733 25.4922 25C25.4922 26.2267 25.6655 27.2733 26.0122 28.14C26.3589 29.0067 26.8389 29.6667 27.4522 30.12C28.0789 30.5733 28.7989 30.8 29.6122 30.8Z" fill="#0057B1"/>
</svg>
