<svg width="51" height="51" viewBox="0 0 51 51" fill="none" xmlns="http://www.w3.org/2000/svg">
<circle cx="25.5" cy="25.5" r="24.5" fill="white" stroke="#0057B1" stroke-width="2"/>
<path d="M25.1555 24C26.6221 24.08 27.7355 24.48 28.4955 25.2C29.2688 25.9067 29.6555 26.8333 29.6555 27.98C29.6555 28.78 29.4621 29.4933 29.0755 30.12C28.6888 30.7333 28.1155 31.22 27.3555 31.58C26.5955 31.94 25.6688 32.12 24.5755 32.12C23.5621 32.12 22.6021 31.96 21.6955 31.64C20.8021 31.3067 20.0821 30.8667 19.5355 30.32L20.2355 29.18C20.7021 29.66 21.3221 30.0533 22.0955 30.36C22.8688 30.6533 23.6955 30.8 24.5755 30.8C25.7221 30.8 26.6088 30.5533 27.2355 30.06C27.8621 29.5533 28.1755 28.86 28.1755 27.98C28.1755 27.1133 27.8621 26.4333 27.2355 25.94C26.6088 25.4467 25.6621 25.2 24.3955 25.2H23.3955V24.14L27.2755 19.28H20.1155V18H29.1155V19.02L25.1555 24Z" fill="#0057B1"/>
</svg>
