<svg width="51" height="51" viewBox="0 0 51 51" fill="none" xmlns="http://www.w3.org/2000/svg">
<circle cx="25.5" cy="25.5" r="24.5" fill="white" stroke="#0057B1" stroke-width="2"/>
<path d="M28.683 24.66C29.563 24.9533 30.2364 25.3933 30.703 25.98C31.183 26.5667 31.423 27.2733 31.423 28.1C31.423 28.9133 31.203 29.6267 30.763 30.24C30.323 30.84 29.6897 31.3067 28.863 31.64C28.0497 31.96 27.0897 32.12 25.983 32.12C24.303 32.12 22.983 31.76 22.023 31.04C21.063 30.32 20.583 29.34 20.583 28.1C20.583 27.26 20.8097 26.5533 21.263 25.98C21.7297 25.3933 22.403 24.9533 23.283 24.66C22.563 24.38 22.0164 23.98 21.643 23.46C21.2697 22.9267 21.083 22.3 21.083 21.58C21.083 20.4467 21.523 19.5467 22.403 18.88C23.2964 18.2133 24.4897 17.88 25.983 17.88C26.9697 17.88 27.8297 18.0333 28.563 18.34C29.3097 18.6333 29.8897 19.06 30.303 19.62C30.7164 20.18 30.923 20.8333 30.923 21.58C30.923 22.3 30.7297 22.9267 30.343 23.46C29.9564 23.98 29.403 24.38 28.683 24.66ZM22.523 21.62C22.523 22.3933 22.8297 23.0067 23.443 23.46C24.0564 23.9133 24.903 24.14 25.983 24.14C27.063 24.14 27.9097 23.9133 28.523 23.46C29.1497 23.0067 29.463 22.4 29.463 21.64C29.463 20.8533 29.143 20.2333 28.503 19.78C27.8764 19.3267 27.0364 19.1 25.983 19.1C24.9164 19.1 24.0697 19.3267 23.443 19.78C22.8297 20.2333 22.523 20.8467 22.523 21.62ZM25.983 30.9C27.223 30.9 28.1897 30.6467 28.883 30.14C29.5897 29.6333 29.943 28.9467 29.943 28.08C29.943 27.2133 29.5897 26.5333 28.883 26.04C28.1897 25.5333 27.223 25.28 25.983 25.28C24.7564 25.28 23.7897 25.5333 23.083 26.04C22.3897 26.5333 22.043 27.2133 22.043 28.08C22.043 28.96 22.3897 29.6533 23.083 30.16C23.7764 30.6533 24.743 30.9 25.983 30.9Z" fill="#0057B1"/>
</svg>
