<svg width="51" height="51" viewBox="0 0 51 51" fill="none" xmlns="http://www.w3.org/2000/svg">
<circle cx="25.5" cy="25.5" r="24.5" fill="white" stroke="#0057B1" stroke-width="2"/>
<path d="M29.9164 30.72V32H20.0964V30.98L25.9164 25.28C26.6497 24.56 27.1431 23.94 27.3964 23.42C27.6631 22.8867 27.7964 22.3533 27.7964 21.82C27.7964 20.9933 27.5097 20.3533 26.9364 19.9C26.3764 19.4333 25.5697 19.2 24.5164 19.2C22.8764 19.2 21.6031 19.72 20.6964 20.76L19.6764 19.88C20.2231 19.24 20.9164 18.7467 21.7564 18.4C22.6097 18.0533 23.5697 17.88 24.6364 17.88C26.0631 17.88 27.1897 18.22 28.0164 18.9C28.8564 19.5667 29.2764 20.4867 29.2764 21.66C29.2764 22.38 29.1164 23.0733 28.7964 23.74C28.4764 24.4067 27.8697 25.1733 26.9764 26.04L22.2164 30.72H29.9164Z" fill="#0057B1"/>
</svg>
