<svg width="51" height="51" viewBox="0 0 51 51" fill="none" xmlns="http://www.w3.org/2000/svg">
<circle cx="25.5" cy="25.5" r="24.5" fill="white" stroke="#0057B1" stroke-width="2"/>
<path d="M26.7463 24.62C27.6663 24.62 28.4796 24.7933 29.1863 25.14C29.9063 25.4867 30.4663 25.98 30.8663 26.62C31.2663 27.2467 31.4663 27.98 31.4663 28.82C31.4663 29.6733 31.2596 30.4267 30.8463 31.08C30.4329 31.7333 29.8596 32.24 29.1263 32.6C28.4063 32.9467 27.5929 33.12 26.6863 33.12C24.8329 33.12 23.4129 32.5133 22.4263 31.3C21.4396 30.0733 20.9463 28.3467 20.9463 26.12C20.9463 24.56 21.2129 23.24 21.7463 22.16C22.2796 21.08 23.0263 20.2667 23.9863 19.72C24.9463 19.16 26.0663 18.88 27.3463 18.88C28.7329 18.88 29.8396 19.1333 30.6663 19.64L30.0863 20.8C29.4196 20.36 28.5129 20.14 27.3663 20.14C25.8196 20.14 24.6063 20.6333 23.7263 21.62C22.8463 22.5933 22.4062 24.0133 22.4062 25.88C22.4062 26.2133 22.4263 26.5933 22.4663 27.02C22.8129 26.26 23.3663 25.6733 24.1263 25.26C24.8863 24.8333 25.7596 24.62 26.7463 24.62ZM26.6263 31.9C27.6396 31.9 28.4596 31.6267 29.0863 31.08C29.7263 30.52 30.0463 29.78 30.0463 28.86C30.0463 27.94 29.7263 27.2067 29.0863 26.66C28.4596 26.1133 27.6063 25.84 26.5263 25.84C25.8196 25.84 25.1929 25.9733 24.6463 26.24C24.1129 26.5067 23.6929 26.8733 23.3863 27.34C23.0796 27.8067 22.9263 28.3267 22.9263 28.9C22.9263 29.4333 23.0663 29.9267 23.3463 30.38C23.6396 30.8333 24.0663 31.2 24.6263 31.48C25.1863 31.76 25.8529 31.9 26.6263 31.9Z" fill="#0057B1"/>
</svg>
