<svg width="51" height="51" viewBox="0 0 51 51" fill="none" xmlns="http://www.w3.org/2000/svg">
<circle cx="25.5" cy="25.5" r="24.5" fill="white" stroke="#0057B1" stroke-width="2"/>
<path d="M25.3063 17.88C27.1596 17.88 28.5796 18.4933 29.5663 19.72C30.5529 20.9333 31.0463 22.6533 31.0463 24.88C31.0463 26.44 30.7796 27.76 30.2463 28.84C29.7129 29.92 28.9663 30.74 28.0063 31.3C27.0463 31.8467 25.9263 32.12 24.6463 32.12C23.2596 32.12 22.1529 31.8667 21.3263 31.36L21.9063 30.2C22.5729 30.64 23.4796 30.86 24.6263 30.86C26.1729 30.86 27.3863 30.3733 28.2663 29.4C29.1463 28.4133 29.5863 26.9867 29.5863 25.12C29.5863 24.7733 29.5663 24.3933 29.5263 23.98C29.1796 24.74 28.6263 25.3333 27.8663 25.76C27.1063 26.1733 26.2329 26.38 25.2463 26.38C24.3263 26.38 23.5063 26.2067 22.7863 25.86C22.0796 25.5133 21.5263 25.0267 21.1263 24.4C20.7263 23.76 20.5263 23.02 20.5263 22.18C20.5263 21.3267 20.7329 20.5733 21.1463 19.92C21.5596 19.2667 22.1263 18.7667 22.8462 18.42C23.5796 18.06 24.3996 17.88 25.3063 17.88ZM25.4663 25.16C26.1729 25.16 26.7929 25.0267 27.3263 24.76C27.8729 24.4933 28.2996 24.1267 28.6063 23.66C28.9129 23.1933 29.0663 22.6733 29.0663 22.1C29.0663 21.5667 28.9196 21.0733 28.6263 20.62C28.3463 20.1667 27.9263 19.8 27.3663 19.52C26.8063 19.24 26.1396 19.1 25.3663 19.1C24.3529 19.1 23.5263 19.38 22.8863 19.94C22.2596 20.4867 21.9463 21.22 21.9463 22.14C21.9463 23.06 22.2596 23.7933 22.8863 24.34C23.5263 24.8867 24.3863 25.16 25.4663 25.16Z" fill="#0057B1"/>
</svg>
