<svg width="51" height="50" viewBox="0 0 51 50" fill="none" xmlns="http://www.w3.org/2000/svg">
<path d="M50 25C50 38.2363 39.0497 49 25.5 49C11.9503 49 1 38.2363 1 25C1 11.7637 11.9503 1 25.5 1C39.0497 1 50 11.7637 50 25Z" fill="white" stroke="#0057B1" stroke-width="2"/>
<path d="M24.0559 23.74C26.0826 23.74 27.5559 24.1067 28.4759 24.84C29.4093 25.56 29.8759 26.5733 29.8759 27.88C29.8759 28.6933 29.6826 29.42 29.2959 30.06C28.9226 30.7 28.3559 31.2067 27.5959 31.58C26.8359 31.94 25.9026 32.12 24.7959 32.12C23.7959 32.12 22.8426 31.96 21.9359 31.64C21.0426 31.3067 20.3226 30.8667 19.7759 30.32L20.4759 29.18C20.9426 29.66 21.5559 30.0533 22.3159 30.36C23.0759 30.6533 23.8959 30.8 24.7759 30.8C25.9359 30.8 26.8293 30.54 27.4559 30.02C28.0959 29.5 28.4159 28.8067 28.4159 27.94C28.4159 26.98 28.0559 26.2533 27.3359 25.76C26.6293 25.2667 25.4293 25.02 23.7359 25.02H20.7559L21.4759 18H29.1359V19.28H22.7359L22.2559 23.74H24.0559Z" fill="#0057B1"/>
</svg>
