<svg width="21" height="20" viewBox="0 0 21 20" fill="none" xmlns="http://www.w3.org/2000/svg">
<ellipse cx="10.5" cy="10" rx="10.5" ry="10" fill="#0057B1"/>
<path d="M9.33 11.52C9.33 10.98 9.45 10.535 9.69 10.185C9.94 9.825 10.3 9.435 10.77 9.015C11.13 8.695 11.395 8.42 11.565 8.19C11.745 7.95 11.835 7.68 11.835 7.38C11.835 6.96 11.665 6.62 11.325 6.36C10.985 6.1 10.53 5.97 9.96 5.97C8.88 5.97 8.065 6.355 7.515 7.125L6.06 6.18C6.49 5.59 7.045 5.14 7.725 4.83C8.405 4.51 9.205 4.35 10.125 4.35C11.245 4.35 12.135 4.595 12.795 5.085C13.465 5.565 13.8 6.23 13.8 7.08C13.8 7.49 13.73 7.85 13.59 8.16C13.46 8.47 13.3 8.735 13.11 8.955C12.92 9.165 12.67 9.41 12.36 9.69C11.98 10.03 11.695 10.33 11.505 10.59C11.325 10.85 11.235 11.16 11.235 11.52H9.33ZM10.29 15.105C9.94 15.105 9.65 14.995 9.42 14.775C9.2 14.545 9.09 14.265 9.09 13.935C9.09 13.605 9.2 13.33 9.42 13.11C9.65 12.89 9.94 12.78 10.29 12.78C10.63 12.78 10.91 12.89 11.13 13.11C11.36 13.33 11.475 13.605 11.475 13.935C11.475 14.265 11.36 14.545 11.13 14.775C10.91 14.995 10.63 15.105 10.29 15.105Z" fill="white"/>
</svg>
