<svg width="22" height="13" viewBox="0 0 22 13" fill="none" xmlns="http://www.w3.org/2000/svg">
<path fill-rule="evenodd" clip-rule="evenodd" d="M20.8671 0.880274C21.0155 0.372855 20.8671 0 20.1605 0H17.824C17.2299 0 16.956 0.322093 16.8075 0.677265C16.8075 0.677265 15.6193 3.64563 13.9361 5.57378C13.3915 6.13192 13.144 6.30951 12.8469 6.30951C12.6984 6.30951 12.4834 6.13192 12.4834 5.62455V0.880274C12.4834 0.271371 12.311 0 11.8159 0H8.14431C7.77305 0 7.54978 0.282605 7.54978 0.550441C7.54978 1.12767 8.39134 1.26079 8.47809 2.88453V6.41104C8.47809 7.18421 8.34186 7.32439 8.04481 7.32439C7.25273 7.32439 5.326 4.34276 4.18327 0.930995C3.95932 0.267866 3.73471 0 3.13757 0H0.801087C0.133521 0 0 0.322093 0 0.677265C0 1.31155 0.79212 4.4575 3.68824 8.61825C5.61897 11.4597 8.33924 13 10.8146 13C12.2998 13 12.4835 12.6579 12.4835 12.0686V9.92105C12.4835 9.23684 12.6242 9.10029 13.0945 9.10029C13.441 9.10029 14.0351 9.27788 15.4213 10.6479C17.0055 12.2716 17.2667 13 18.1578 13H20.4943C21.1618 13 21.4956 12.6579 21.3031 11.9828C21.0924 11.3099 20.336 10.3337 19.3324 9.17639C18.7878 8.51677 17.9709 7.80643 17.7234 7.45117C17.3768 6.99456 17.4758 6.79155 17.7234 6.38565C17.7234 6.38565 20.57 2.27562 20.8671 0.880274Z" fill="white"/>
</svg>
