<svg width="51" height="50" viewBox="0 0 51 50" fill="none" xmlns="http://www.w3.org/2000/svg">
<ellipse cx="25.5444" cy="25" rx="25.4292" ry="25" fill="#0057B1"/>
<path d="M33.8852 25.075C33.8852 24.675 33.6817 24.375 33.4783 24.175C33.4783 24.175 33.3766 24.075 33.2749 24.075L28.5959 19.375C28.0873 18.875 27.3753 18.875 26.8667 19.375C26.4599 19.875 26.4599 20.675 26.9684 21.075L29.8165 23.875H20.662C19.95 23.875 19.4414 24.375 19.4414 25.075C19.4414 25.775 19.95 26.275 20.662 26.275H29.7148L26.9684 28.975C26.4599 29.475 26.4599 30.175 26.9684 30.675C27.3753 31.075 28.189 31.075 28.5959 30.675L33.1732 26.175C33.58 25.975 33.8852 25.575 33.8852 25.075Z" fill="white"/>
</svg>
