<svg width="51" height="50" viewBox="0 0 51 50" fill="none" xmlns="http://www.w3.org/2000/svg">
<ellipse cx="25.5444" cy="25" rx="25.4292" ry="25" transform="rotate(-180 25.5444 25)" fill="#0057B1"/>
<path d="M17.2037 24.925C17.2037 25.325 17.4071 25.625 17.6105 25.825C17.6105 25.825 17.7122 25.925 17.814 25.925L22.4929 30.625C23.0015 31.125 23.7135 31.125 24.2221 30.625C24.629 30.125 24.629 29.325 24.1204 28.925L21.2723 26.125L30.4268 26.125C31.1388 26.125 31.6474 25.625 31.6474 24.925C31.6474 24.225 31.1388 23.725 30.4268 23.725L21.374 23.725L24.1204 21.025C24.629 20.525 24.629 19.825 24.1204 19.325C23.7135 18.925 22.8998 18.925 22.4929 19.325L17.9157 23.825C17.5088 24.025 17.2037 24.425 17.2037 24.925Z" fill="white"/>
</svg>
